<svg width="48" height="32" viewBox="0 0 48 32" fill="none" xmlns="http://www.w3.org/2000/svg">
<path d="M23.7251 21.4172C25.6086 19.8327 26.9593 17.7074 27.5941 15.3293C28.2289 12.9512 28.1171 10.4354 27.2738 8.12305C26.4306 5.81067 24.8966 3.81353 22.8799 2.40239C20.8633 0.99125 18.4615 0.234375 16.0001 0.234375C13.5388 0.234375 11.1369 0.99125 9.12028 2.40239C7.10362 3.81353 5.56966 5.81067 4.72638 8.12305C3.88309 10.4354 3.77127 12.9512 4.40607 15.3293C5.04088 17.7074 6.39159 19.8327 8.27511 21.4172C5.22043 22.7995 2.59183 24.9749 0.662606 27.7172C0.320202 28.2048 0.185157 28.8082 0.287092 29.3953C0.389027 29.9823 0.719619 30.5049 1.20636 30.8485C1.58371 31.1182 2.03628 31.2625 2.50011 31.261C2.86088 31.262 3.21652 31.1755 3.53655 31.009C3.85658 30.8424 4.13145 30.6008 4.33761 30.3047C5.6522 28.4323 7.39828 26.904 9.42824 25.8489C11.4582 24.7939 13.7123 24.243 16.0001 24.243C18.2879 24.243 20.542 24.7939 22.572 25.8489C24.6019 26.904 26.348 28.4323 27.6626 30.3047C27.8256 30.5623 28.0392 30.7841 28.2905 30.9566C28.5418 31.1291 28.8255 31.2488 29.1245 31.3083C29.4234 31.3679 29.7313 31.366 30.0295 31.303C30.3278 31.2399 30.6101 31.1169 30.8593 30.9414C31.1085 30.7659 31.3195 30.5416 31.4794 30.2821C31.6394 30.0226 31.7449 29.7333 31.7896 29.4318C31.8343 29.1303 31.8173 28.8229 31.7396 28.5281C31.6619 28.2334 31.5252 27.9575 31.3376 27.7172C29.4084 24.9749 26.7798 22.7995 23.7251 21.4172ZM8.50011 12.2485C8.50011 10.7651 8.93997 9.31505 9.76408 8.08168C10.5882 6.84831 11.7595 5.88702 13.13 5.31936C14.5004 4.7517 16.0084 4.60318 17.4633 4.89257C18.9181 5.18195 20.2545 5.89626 21.3034 6.94515C22.3523 7.99405 23.0666 9.33042 23.356 10.7853C23.6454 12.2401 23.4969 13.7481 22.9292 15.1186C22.3615 16.489 21.4003 17.6604 20.1669 18.4845C18.9335 19.3086 17.4835 19.7485 16.0001 19.7485C14.011 19.7485 12.1033 18.9583 10.6968 17.5518C9.29028 16.1452 8.50011 14.2376 8.50011 12.2485ZM46.0751 30.8485C45.6978 31.1182 45.2452 31.2625 44.7814 31.261C44.4212 31.2589 44.0666 31.1711 43.7471 31.0048C43.4276 30.8385 43.1522 30.5985 42.9439 30.3047C41.6264 28.4356 39.8796 26.91 37.8502 25.8562C35.8208 24.8023 33.5681 24.251 31.2814 24.2485C30.6846 24.2485 30.1123 24.0114 29.6904 23.5894C29.2684 23.1675 29.0314 22.5952 29.0314 21.9985C29.0314 21.4017 29.2684 20.8294 29.6904 20.4075C30.1123 19.9855 30.6846 19.7485 31.2814 19.7485C33.2705 19.7485 35.1781 18.9583 36.5847 17.5518C37.9912 16.1452 38.7814 14.2376 38.7814 12.2485C38.7814 10.2593 37.9912 8.35168 36.5847 6.94515C35.1781 5.53863 33.2705 4.74846 31.2814 4.74846C30.5965 4.74717 29.9149 4.84184 29.2564 5.02971C28.9704 5.11501 28.6703 5.14257 28.3736 5.11078C28.0768 5.079 27.7894 4.9885 27.528 4.84456C27.2666 4.70062 27.0364 4.50612 26.8509 4.27237C26.6653 4.03862 26.5282 3.7703 26.4473 3.48303C26.3665 3.19576 26.3436 2.89528 26.38 2.59908C26.4164 2.30289 26.5114 2.01689 26.6594 1.75775C26.8074 1.49861 27.0055 1.27149 27.2421 1.08963C27.4787 0.907774 27.7491 0.774801 28.0376 0.698456C29.0926 0.398098 30.1844 0.246633 31.2814 0.248456C33.7443 0.241303 36.1497 0.993395 38.1699 2.40233C40.1901 3.81127 41.727 5.80859 42.5714 8.12234C43.4157 10.4361 43.5265 12.9539 42.8886 15.3328C42.2506 17.7118 40.8951 19.8363 39.0064 21.4172C42.061 22.7995 44.6896 24.9749 46.6189 27.7172C46.7908 27.9578 46.9133 28.2301 46.9791 28.5184C47.0449 28.8067 47.0527 29.1052 47.0021 29.3966C46.9515 29.688 46.8435 29.9663 46.6844 30.2156C46.5252 30.4648 46.3181 30.68 46.0751 30.8485Z" fill="white"/>
</svg>
