<svg width="18" height="19" viewBox="0 0 18 19" fill="none" xmlns="http://www.w3.org/2000/svg">
<path d="M15.336 15.7995H12.6702V11.6236C12.6702 10.6273 12.6495 9.34567 11.2806 9.34567C9.891 9.34567 9.6786 10.4293 9.6786 11.5498V15.7995H7.0137V7.21089H9.5733V8.38088H9.6084C9.9657 7.70588 10.836 6.99489 12.1356 6.99489C14.8365 6.99489 15.336 8.77148 15.336 11.0854V15.7995ZM4.0023 6.0355C3.1437 6.0355 2.4543 5.3416 2.4543 4.48751C2.4543 3.63341 3.1446 2.93952 4.0023 2.93952C4.41286 2.93952 4.80659 3.10261 5.0969 3.39291C5.38721 3.68322 5.5503 4.07696 5.5503 4.48751C5.5503 4.89806 5.38721 5.2918 5.0969 5.5821C4.80659 5.87241 4.41286 6.0355 4.0023 6.0355ZM5.3379 15.8004H2.6649V7.21089H5.3379V15.8004ZM16.6698 0.460938H1.3284C0.594 0.460938 0 1.04143 0 1.75693V17.1648C0 17.8803 0.594 18.4608 1.3284 18.4608H16.6662C17.3997 18.4608 18 17.8812 18 17.1648V1.75693C18 1.04233 17.3997 0.460938 16.6662 0.460938H16.6698Z" fill="white"/>
</svg>
