<svg width="20" height="16" viewBox="0 0 20 16" fill="none" xmlns="http://www.w3.org/2000/svg">
<path fill-rule="evenodd" clip-rule="evenodd" d="M7.172 9.79488L10.002 11.7299L12.73 9.84788L18.845 15.8808C18.684 15.9328 18.512 15.9608 18.333 15.9608H1.667C1.447 15.9608 1.237 15.9178 1.044 15.8408L7.172 9.79488ZM20 4.83691V14.2938C20 14.5408 19.946 14.7748 19.85 14.9858L13.856 9.07188L20 4.83691ZM9.43602e-07 4.88991L6.042 9.02188L0.106001 14.8798C0.0356967 14.6925 -0.000212233 14.494 9.43602e-07 14.2938V4.88991ZM18.333 0.960938C19.253 0.960938 20 1.70693 20 2.62793V3.21392L9.998 10.1089L9.43602e-07 3.27092V2.62793C9.43602e-07 1.70793 0.746001 0.960938 1.667 0.960938H18.333Z" fill="white"/>
</svg>
