<svg width="18" height="19" viewBox="0 0 18 19" fill="none" xmlns="http://www.w3.org/2000/svg">
<path d="M15.75 12.7759V15.4278C15.7501 15.6177 15.6781 15.8006 15.5487 15.9395C15.4192 16.0784 15.2419 16.163 15.0525 16.1763C14.7247 16.1988 14.457 16.2108 14.25 16.2108C7.62225 16.2108 2.25 10.8386 2.25 4.21093C2.25 4.00393 2.26125 3.73618 2.2845 3.40843C2.29779 3.21902 2.38244 3.04169 2.52135 2.91224C2.66027 2.78279 2.84312 2.71085 3.033 2.71094H5.685C5.77803 2.71084 5.86777 2.74533 5.9368 2.8077C6.00582 2.87007 6.0492 2.95587 6.0585 3.04844C6.07575 3.22093 6.0915 3.35818 6.1065 3.46243C6.25555 4.50262 6.561 5.51429 7.0125 6.46316C7.08375 6.61316 7.03725 6.79241 6.90225 6.88841L5.28375 8.0449C6.27334 10.3507 8.11091 12.1883 10.4167 13.1779L11.5717 11.5624C11.619 11.4964 11.6878 11.449 11.7664 11.4286C11.8449 11.4082 11.9281 11.416 12.0015 11.4506C12.9503 11.9013 13.9617 12.206 15.0015 12.3544C15.1058 12.3694 15.243 12.3851 15.414 12.4024C15.5064 12.4118 15.592 12.4553 15.6543 12.5243C15.7165 12.5933 15.7501 12.683 15.75 12.7759Z" fill="white"/>
</svg>
