<svg width="26" height="31" viewBox="0 0 26 31" fill="none" xmlns="http://www.w3.org/2000/svg">
<path d="M2.25077 10.2508C1.23752 10.2503 0.416266 11.0736 0.416016 12.0861L0.417265 19.7701C0.417101 20.0112 0.464464 20.2499 0.556645 20.4727C0.648826 20.6955 0.784018 20.8979 0.954489 21.0684C1.12496 21.2389 1.32737 21.3741 1.55014 21.4663C1.77291 21.5585 2.01167 21.6059 2.25277 21.6058C2.49383 21.6061 2.73258 21.5588 2.95534 21.4666C3.1781 21.3744 3.38048 21.2392 3.55089 21.0687C3.72131 20.8982 3.85641 20.6958 3.94845 20.473C4.04049 20.2501 4.08766 20.0114 4.08727 19.7703V12.0851C4.08674 11.5984 3.89301 11.1318 3.54865 10.7878C3.20429 10.4439 2.73747 10.2507 2.25077 10.2508ZM17.049 3.3503L18.3298 1.01155C18.3624 0.952224 18.3702 0.882379 18.3514 0.817331C18.3326 0.752283 18.2888 0.697342 18.2295 0.664553C18.1702 0.632452 18.1005 0.625134 18.0358 0.644197C17.9711 0.66326 17.9165 0.707156 17.884 0.766303L16.5903 3.12955C15.5018 2.64505 14.2835 2.37355 12.9945 2.3748C11.709 2.37355 10.4913 2.6443 9.40727 3.12605L8.11202 0.768803C8.0962 0.739379 8.07471 0.713385 8.04878 0.692326C8.02285 0.671268 7.993 0.655563 7.96096 0.646123C7.92892 0.636682 7.89532 0.633693 7.86211 0.637329C7.82891 0.640965 7.79676 0.651153 7.76752 0.667303C7.73799 0.683082 7.71192 0.704589 7.69081 0.730567C7.6697 0.756545 7.65398 0.786472 7.64458 0.818597C7.63517 0.850721 7.63227 0.884399 7.63604 0.91766C7.6398 0.95092 7.65016 0.983095 7.66652 1.0123L8.94777 3.34955C6.43027 4.6478 4.72927 7.1203 4.73077 9.95905L21.2603 9.95705C21.2608 7.1193 19.5628 4.6518 17.049 3.3503ZM9.23502 6.96455C9.05119 6.96445 8.87493 6.89133 8.74501 6.76128C8.6151 6.63122 8.54217 6.45488 8.54227 6.27105C8.54237 6.08722 8.61549 5.91097 8.74554 5.78105C8.8756 5.65113 9.05194 5.5782 9.23577 5.5783C9.41961 5.57863 9.59584 5.6518 9.72587 5.78177C9.85589 5.91175 9.92912 6.08795 9.92952 6.2718C9.92918 6.45573 9.85585 6.63201 9.72563 6.7619C9.59541 6.8918 9.41895 6.96469 9.23502 6.96455ZM16.7615 6.9633C16.6705 6.96337 16.5804 6.9455 16.4963 6.91071C16.4122 6.87592 16.3358 6.8249 16.2714 6.76056C16.2071 6.69623 16.156 6.61983 16.1212 6.53575C16.0864 6.45167 16.0685 6.36156 16.0685 6.27055C16.0695 6.08688 16.1428 5.91099 16.2726 5.78099C16.4023 5.651 16.5781 5.57737 16.7618 5.57605C16.9453 5.57757 17.1208 5.65134 17.2503 5.78139C17.3798 5.91144 17.4528 6.08728 17.4535 6.2708C17.4536 6.36173 17.4358 6.45178 17.4011 6.53581C17.3663 6.61984 17.3154 6.6962 17.2511 6.76052C17.1868 6.82484 17.1105 6.87585 17.0265 6.91065C16.9425 6.94544 16.8524 6.96334 16.7615 6.9633ZM4.79827 10.5976L4.80102 22.5063C4.80072 22.7635 4.85116 23.0182 4.94946 23.2559C5.04776 23.4936 5.19198 23.7095 5.37386 23.8914C5.55574 24.0732 5.7717 24.2174 6.00939 24.3157C6.24708 24.414 6.50182 24.4644 6.75902 24.4641L8.09227 24.4646L8.09377 28.5306C8.09352 29.5431 8.91652 30.3661 9.92752 30.3661C10.9415 30.3661 11.763 29.5423 11.7633 28.5293L11.7623 24.4643L14.2395 24.4636L14.2405 28.5293C14.2405 29.5411 15.0638 30.3658 16.075 30.3638C17.089 30.3646 17.911 29.5408 17.9108 28.5278L17.9095 24.4631L19.2475 24.4621C19.5047 24.4621 19.7595 24.4115 19.9971 24.313C20.2348 24.2146 20.4507 24.0704 20.6326 23.8885C20.8145 23.7067 20.9589 23.4907 21.0573 23.2531C21.1558 23.0155 21.2065 22.7608 21.2065 22.5036L21.2043 10.5948L4.79827 10.5976ZM25.5818 12.0833C25.5818 11.8423 25.5343 11.6037 25.4421 11.381C25.3499 11.1584 25.2147 10.9561 25.0443 10.7857C24.8738 10.6153 24.6715 10.4802 24.4488 10.388C24.2262 10.2958 23.9875 10.2485 23.7465 10.2486C22.7333 10.2476 21.9123 11.0703 21.9123 12.0841L21.9138 19.7686C21.9136 20.0095 21.9609 20.2482 22.0531 20.4709C22.1452 20.6936 22.2804 20.8959 22.4508 21.0663C22.6212 21.2367 22.8235 21.3718 23.0462 21.464C23.2689 21.5561 23.5075 21.6035 23.7485 21.6033C23.9895 21.6033 24.2282 21.5559 24.4509 21.4636C24.6735 21.3713 24.8758 21.2361 25.0462 21.0656C25.2166 20.8951 25.3517 20.6927 25.4438 20.47C25.5359 20.2473 25.5832 20.0086 25.583 19.7676L25.5818 12.0833Z" fill="white"/>
</svg>
