<svg width="52" height="53" viewBox="0 0 52 53" fill="none" xmlns="http://www.w3.org/2000/svg">
<path d="M35.0513 45.5937C32.224 46.939 29.1311 47.6332 26.0001 47.625C14.352 47.625 4.87505 38.148 4.87505 26.5C4.87505 21.5031 6.59267 16.7841 9.75005 12.9995V16.75H13V7H3.25004V10.25H7.8683C3.83937 14.7021 1.61354 20.4955 1.62504 26.5C1.62504 39.9404 12.5597 50.875 26.0001 50.875C29.6146 50.8842 33.1852 50.0823 36.4488 48.5285L35.0513 45.5937Z" fill="url(#paint0_linear_424_608)"/>
<path d="M34.125 15.125C28.99 15.125 24.7796 19.1176 24.4108 24.16C22.6242 22.53 20.2934 21.626 17.875 21.625H11.375V28.125C11.375 33.5021 15.7495 37.875 21.125 37.875H24.375V44.375H27.625V31.375H30.875C36.2505 31.375 40.625 27.0021 40.625 21.625V15.125H34.125ZM21.125 34.625C17.5402 34.625 14.625 31.7097 14.625 28.125V24.875H17.875C21.4598 24.875 24.375 27.7902 24.375 31.375V32.3273L20.6489 28.6011L18.3511 30.8989L22.0773 34.625H21.125ZM37.375 21.625C37.375 25.2098 34.4597 28.125 30.875 28.125H29.9227L33.6489 24.3989L31.3511 22.1011L27.625 25.8273V24.875C27.625 21.2902 30.5403 18.375 34.125 18.375H37.375V21.625Z" fill="url(#paint1_linear_424_608)"/>
<path d="M50.3745 26.5001C50.3745 13.0597 39.4399 2.12508 25.9995 2.12508C22.385 2.1159 18.8144 2.91776 15.5508 4.47158L16.9483 7.40633C19.7755 6.06101 22.8685 5.3669 25.9995 5.37508C37.6475 5.37508 47.1245 14.8521 47.1245 26.5001C47.1245 31.4969 45.4069 36.2159 42.2495 40.0006V36.2501H38.9995V46.0001H48.7495V42.7501H44.1313C48.1602 38.2979 50.386 32.5045 50.3745 26.5001Z" fill="url(#paint2_linear_424_608)"/>
<defs>
<linearGradient id="paint0_linear_424_608" x1="19.0369" y1="7" x2="19.0369" y2="50.8751" gradientUnits="userSpaceOnUse">
<stop stop-color="white"/>
<stop offset="1" stop-color="white" stop-opacity="0.9"/>
</linearGradient>
<linearGradient id="paint1_linear_424_608" x1="26" y1="15.125" x2="26" y2="44.375" gradientUnits="userSpaceOnUse">
<stop stop-color="white"/>
<stop offset="1" stop-color="white" stop-opacity="0.9"/>
</linearGradient>
<linearGradient id="paint2_linear_424_608" x1="32.9627" y1="2.125" x2="32.9627" y2="46.0001" gradientUnits="userSpaceOnUse">
<stop stop-color="white"/>
<stop offset="1" stop-color="white" stop-opacity="0.9"/>
</linearGradient>
</defs>
</svg>
