<svg width="30" height="51" viewBox="0 0 30 51" fill="none" xmlns="http://www.w3.org/2000/svg">
<path d="M24.8075 50.5V48H25.9625C26.3458 48 26.6983 47.84 27.02 47.52C27.34 47.1983 27.5 46.8458 27.5 46.4625V9.25H2.5V25.6925H0V4.5375C0 3.3875 0.385833 2.4275 1.1575 1.6575C1.9275 0.885833 2.8875 0.5 4.0375 0.5H25.9625C27.1125 0.5 28.0725 0.885833 28.8425 1.6575C29.6142 2.4275 30 3.3875 30 4.5375V46.4625C30 47.6125 29.615 48.5725 28.845 49.3425C28.0733 50.1142 27.1125 50.5 25.9625 50.5H24.8075ZM0 50.5V47.0375C0.951667 47.0375 1.76667 47.3767 2.445 48.055C3.12333 48.7333 3.4625 49.5483 3.4625 50.5H0ZM9.425 50.5C9.425 47.8783 8.50917 45.6525 6.6775 43.8225C4.84583 41.9925 2.62 41.0767 0 41.075V38.575C3.31167 38.575 6.12667 39.7333 8.445 42.05C10.765 44.3733 11.925 47.19 11.925 50.5H9.425ZM17.885 50.5C17.885 45.525 16.1475 41.3 12.6725 37.825C9.1975 34.35 4.97333 32.6142 0 32.6175V30.1175C2.82 30.1175 5.47 30.6525 7.95 31.7225C10.43 32.7925 12.5875 34.245 14.4225 36.08C16.2558 37.9133 17.7083 40.0708 18.78 42.5525C19.85 45.0325 20.385 47.6825 20.385 50.5025L17.885 50.5Z" fill="white"/>
</svg>
