<svg width="123" height="123" viewBox="0 0 123 123" fill="none" xmlns="http://www.w3.org/2000/svg">
<path d="M48.7879 95.8667H107.645L123 111.067V57.8652C123 52.2916 118.393 47.7314 112.763 47.7314H48.7879C43.158 47.7314 38.5518 52.2916 38.5518 57.8652V85.7329C38.5518 91.3065 43.158 95.8667 48.7879 95.8667Z" fill="#022D24"/>
<path d="M83.9645 77.4072H75.0815L73.3543 82.6117H67.9258L77.0555 57.8281H81.7438L90.8735 82.6117H85.445L83.9645 77.4072ZM76.3153 73.4418H82.484L79.523 64.024L76.3153 73.4418Z" fill="white" fill-opacity="0.28"/>
<path d="M75.4352 57.2161H23.615L10.0967 70.6788V19.0718C10.0967 14.1355 14.1522 10.0967 19.1089 10.0967H75.4352C80.3919 10.0967 84.4474 14.1355 84.4474 19.0718V48.241C84.4474 53.1773 80.3919 57.2161 75.4352 57.2161Z" fill="#8BC34A"/>
<path d="M57.8279 32.8692C57.8279 35.0875 57.3898 36.8621 56.7326 38.4149C56.0755 39.9677 55.1993 41.2987 53.885 42.186L57.6088 45.0698L54.7612 47.7317L49.9422 43.9606C49.5041 43.9606 48.847 44.1825 48.1898 44.1825C46.8755 44.1825 45.5613 43.9606 44.247 43.517C43.1517 43.0733 42.0565 42.186 41.1803 41.2987C40.3041 40.4114 39.647 39.0804 39.2089 37.7494C38.7708 36.4185 38.5518 34.8657 38.5518 33.091V32.2037C38.5518 30.4291 38.7708 28.8763 39.2089 27.5453C39.647 26.2144 40.3041 24.8834 41.1803 23.9961C42.0565 23.1088 42.9327 22.2214 44.247 21.7778C45.3422 21.3341 46.6565 21.1123 48.1898 21.1123C49.5041 21.1123 50.8184 21.3341 52.1327 21.7778C53.2279 22.2214 54.3231 23.1088 55.1993 23.9961C56.0755 24.8834 56.7326 26.2144 57.1707 27.5453C57.6088 28.8763 57.8279 30.4291 57.8279 32.2037V32.8692ZM53.0088 31.7601C53.0088 29.32 52.5708 27.5453 51.6946 26.4362C50.8184 25.1052 49.7231 24.6616 48.1898 24.6616C46.6565 24.6616 45.3422 25.327 44.6851 26.4362C43.8089 27.7672 43.3708 29.5418 43.3708 31.7601V32.8692C43.3708 33.9784 43.5898 35.0875 43.8089 35.9748C44.0279 36.8621 44.247 37.7494 44.6851 38.1931C45.1232 38.8586 45.5613 39.3022 46.2184 39.5241C46.8755 39.7459 47.5327 39.9677 48.1898 39.9677C49.7231 39.9677 51.0374 39.3022 51.6946 38.1931C52.5708 36.8621 53.0088 35.0875 53.0088 32.6474V31.7601Z" fill="white"/>
</svg>
