<svg width="34" height="30" viewBox="0 0 34 30" fill="none" xmlns="http://www.w3.org/2000/svg">
<path d="M17.9036 9.39431L17.9033 14.4172V14.4172V14.4757C17.9033 14.5922 17.9184 14.7052 17.9466 14.813L17.8988 15.6307L17.8962 15.6747C17.885 15.8663 17.8103 16.034 17.6842 16.1603L19.1268 15.2153C19.0445 15.2018 18.9624 15.1727 18.8806 15.1281L18.4844 14.9123V14.4757V14.4172V9.39431M17.9036 9.39431V9.39428L18.194 9.39429L18.4844 9.39431M17.9036 9.39431C17.9036 9.55474 18.0338 9.68472 18.194 9.68472C18.3544 9.68472 18.4844 9.55442 18.4844 9.39431M17.9036 9.39431H18.194H18.4844M12.2833 8.94532L12.2833 8.94536L12.2833 8.94532ZM12.2833 8.94532C12.0703 9.31639 11.5586 9.45492 11.1849 9.24029L12.2833 8.94532ZM10.8522 9.81802L10.8516 9.81766C10.5772 9.65928 10.3794 9.39982 10.2976 9.09579L10.2974 9.09533L10.2974 9.09524L10.297 9.0937C10.2304 8.84318 10.2473 8.58109 10.3431 8.34363V8.14906C10.1722 8.44405 10.1265 8.78826 10.2149 9.11739C10.3028 9.44631 10.5141 9.72125 10.8095 9.89253L10.8522 9.81802ZM18.0957 16.5714L18.1558 16.6315L18.0957 16.5714L18.095 16.5721C17.8442 16.8224 17.5077 16.9606 17.1545 16.9606C17.1545 16.9606 17.1545 16.9606 17.1545 16.9606C16.6743 16.9605 16.2532 16.7054 16.0194 16.3234C15.9954 16.3357 15.9711 16.3476 15.9465 16.359L18.0957 16.5714ZM10.9195 8.48398C10.8377 8.6257 10.8166 8.78716 10.8587 8.94442C10.8587 8.94446 10.8588 8.94451 10.8588 8.94455L10.8588 8.94468L10.859 8.9453C10.9007 9.10166 10.9992 9.23122 11.142 9.31465C11.142 9.31469 11.1421 9.31472 11.1421 9.31475L10.9195 8.48398Z" fill="url(#paint0_linear_256_533)" stroke="url(#paint1_linear_256_533)" stroke-width="1.33333"/>
<path d="M9.12488 21.7917C8.9463 21.8992 8.71541 21.8412 8.60869 21.6629C8.50173 21.4848 8.55968 21.2536 8.73756 21.1467L9.12488 21.7917ZM4.74648 17.427C4.76113 17.4006 4.77482 17.376 4.7875 17.3531C4.83876 17.2608 4.87346 17.1983 4.88739 17.1732L4.96319 17.2131C4.91636 17.2975 4.87042 17.3802 4.82535 17.4614C4.79896 17.4515 4.77261 17.4401 4.74648 17.427ZM15.155 19.7211C15.3072 19.6296 15.4146 19.485 15.4575 19.3132C15.5004 19.1417 15.4738 18.9634 15.3826 18.8112L15.155 19.7211Z" fill="url(#paint2_linear_256_533)" stroke="url(#paint3_linear_256_533)" stroke-width="1.33333"/>
<path d="M20.852 19.0937C20.758 19.0354 20.6725 18.9664 20.5968 18.8884L19.8775 18.512L19.8775 18.512L19.8374 18.491C19.7236 18.4315 19.6076 18.4032 19.4957 18.403L20.852 19.0937ZM19.171 17.8624C19.1711 17.8623 19.1712 17.8623 19.1713 17.8623L19.2267 18.0845L19.2267 18.0846L19.3119 18.426L19.3118 18.426L19.171 17.8624ZM23.3865 24.786C23.3863 24.7859 23.3861 24.7858 23.386 24.7858L23.3865 24.786ZM18.8443 21.1876L18.8456 21.1884L18.8443 21.1876Z" fill="url(#paint4_linear_256_533)" stroke="url(#paint5_linear_256_533)" stroke-width="1.33333"/>
<defs>
<linearGradient id="paint0_linear_256_533" x1="16.449" y1="17.0459" x2="16.449" y2="0.000469208" gradientUnits="userSpaceOnUse">
<stop stop-color="#022D24"/>
<stop offset="1" stop-color="#146C60"/>
</linearGradient>
<linearGradient id="paint1_linear_256_533" x1="16.449" y1="17.0459" x2="16.449" y2="0.000469208" gradientUnits="userSpaceOnUse">
<stop stop-color="#022D24"/>
<stop offset="1" stop-color="#146C60"/>
</linearGradient>
<linearGradient id="paint2_linear_256_533" x1="8.63884" y1="30" x2="8.63884" y2="16.5039" gradientUnits="userSpaceOnUse">
<stop stop-color="#022D24"/>
<stop offset="1" stop-color="#146C60"/>
</linearGradient>
<linearGradient id="paint3_linear_256_533" x1="8.63884" y1="30" x2="8.63884" y2="16.5039" gradientUnits="userSpaceOnUse">
<stop stop-color="#022D24"/>
<stop offset="1" stop-color="#146C60"/>
</linearGradient>
<linearGradient id="paint4_linear_256_533" x1="25.6684" y1="30" x2="25.6684" y2="16.5034" gradientUnits="userSpaceOnUse">
<stop stop-color="#022D24"/>
<stop offset="1" stop-color="#146C60"/>
</linearGradient>
<linearGradient id="paint5_linear_256_533" x1="25.6684" y1="30" x2="25.6684" y2="16.5034" gradientUnits="userSpaceOnUse">
<stop stop-color="#022D24"/>
<stop offset="1" stop-color="#146C60"/>
</linearGradient>
</defs>
</svg>
