<svg width="48" height="48" viewBox="0 0 48 48" fill="none" xmlns="http://www.w3.org/2000/svg">
<path d="M24.9036 18.3943L24.9033 23.4172V23.4172V23.4757C24.9033 23.5922 24.9184 23.7052 24.9466 23.813L24.8988 24.6307L24.8962 24.6747C24.885 24.8663 24.8103 25.034 24.6842 25.1603L26.1268 24.2153C26.0445 24.2018 25.9624 24.1727 25.8806 24.1281L25.4844 23.9123V23.4757V23.4172V18.3943M24.9036 18.3943V18.3943L25.194 18.3943L25.4844 18.3943M24.9036 18.3943C24.9036 18.5547 25.0338 18.6847 25.194 18.6847C25.3544 18.6847 25.4844 18.5544 25.4844 18.3943M24.9036 18.3943H25.194H25.4844M19.2833 17.9453L19.2833 17.9454L19.2833 17.9453ZM19.2833 17.9453C19.0703 18.3164 18.5586 18.4549 18.1849 18.2403L19.2833 17.9453ZM17.8522 18.818L17.8516 18.8177C17.5772 18.6593 17.3794 18.3998 17.2976 18.0958L17.2974 18.0953L17.2974 18.0952L17.297 18.0937C17.2304 17.8432 17.2473 17.5811 17.3431 17.3436V17.1491C17.1722 17.444 17.1265 17.7883 17.2149 18.1174C17.3028 18.4463 17.5141 18.7213 17.8095 18.8925L17.8522 18.818ZM25.0957 25.5714L25.1558 25.6315L25.0957 25.5714L25.095 25.5721C24.8442 25.8224 24.5077 25.9606 24.1545 25.9606C24.1545 25.9606 24.1545 25.9606 24.1545 25.9606C23.6743 25.9605 23.2532 25.7054 23.0194 25.3234C22.9954 25.3357 22.9711 25.3476 22.9465 25.359L25.0957 25.5714ZM17.9195 17.484C17.8377 17.6257 17.8166 17.7872 17.8587 17.9444C17.8587 17.9445 17.8588 17.9445 17.8588 17.9446L17.8588 17.9447L17.859 17.9453C17.9007 18.1017 17.9992 18.2312 18.142 18.3147C18.142 18.3147 18.1421 18.3147 18.1421 18.3148L17.9195 17.484Z" fill="url(#paint0_linear_256_532)" stroke="url(#paint1_linear_256_532)" stroke-width="1.33333"/>
<path d="M16.1249 30.7917C15.9463 30.8992 15.7154 30.8412 15.6087 30.6629C15.5017 30.4848 15.5597 30.2536 15.7376 30.1467L16.1249 30.7917ZM11.7465 26.427C11.7611 26.4006 11.7748 26.376 11.7875 26.3531C11.8388 26.2608 11.8735 26.1983 11.8874 26.1732L11.9632 26.2131C11.9164 26.2975 11.8704 26.3802 11.8254 26.4614C11.799 26.4515 11.7726 26.4401 11.7465 26.427ZM22.155 28.7211C22.3072 28.6296 22.4146 28.485 22.4575 28.3132C22.5004 28.1417 22.4738 27.9634 22.3826 27.8112L22.155 28.7211Z" fill="url(#paint2_linear_256_532)" stroke="url(#paint3_linear_256_532)" stroke-width="1.33333"/>
<path d="M27.852 28.0937C27.758 28.0354 27.6725 27.9664 27.5968 27.8884L26.8775 27.512L26.8775 27.512L26.8374 27.491C26.7236 27.4315 26.6076 27.4032 26.4957 27.403L27.852 28.0937ZM26.171 26.8624C26.1711 26.8623 26.1712 26.8623 26.1713 26.8623L26.2267 27.0845L26.2267 27.0846L26.3119 27.426L26.3118 27.426L26.171 26.8624ZM30.3865 33.786C30.3863 33.7859 30.3861 33.7858 30.386 33.7858L30.3865 33.786ZM25.8443 30.1876L25.8456 30.1884L25.8443 30.1876Z" fill="url(#paint4_linear_256_532)" stroke="url(#paint5_linear_256_532)" stroke-width="1.33333"/>
<defs>
<linearGradient id="paint0_linear_256_532" x1="23.449" y1="26.0459" x2="23.449" y2="9.00047" gradientUnits="userSpaceOnUse">
<stop stop-color="#022D24"/>
<stop offset="1" stop-color="#146C60"/>
</linearGradient>
<linearGradient id="paint1_linear_256_532" x1="23.449" y1="26.0459" x2="23.449" y2="9.00047" gradientUnits="userSpaceOnUse">
<stop stop-color="#022D24"/>
<stop offset="1" stop-color="#146C60"/>
</linearGradient>
<linearGradient id="paint2_linear_256_532" x1="15.6388" y1="39" x2="15.6388" y2="25.5039" gradientUnits="userSpaceOnUse">
<stop stop-color="#022D24"/>
<stop offset="1" stop-color="#146C60"/>
</linearGradient>
<linearGradient id="paint3_linear_256_532" x1="15.6388" y1="39" x2="15.6388" y2="25.5039" gradientUnits="userSpaceOnUse">
<stop stop-color="#022D24"/>
<stop offset="1" stop-color="#146C60"/>
</linearGradient>
<linearGradient id="paint4_linear_256_532" x1="32.6684" y1="39" x2="32.6684" y2="25.5034" gradientUnits="userSpaceOnUse">
<stop stop-color="#022D24"/>
<stop offset="1" stop-color="#146C60"/>
</linearGradient>
<linearGradient id="paint5_linear_256_532" x1="32.6684" y1="39" x2="32.6684" y2="25.5034" gradientUnits="userSpaceOnUse">
<stop stop-color="#022D24"/>
<stop offset="1" stop-color="#146C60"/>
</linearGradient>
</defs>
</svg>
