<svg width="49" height="48" viewBox="0 0 49 48" fill="none" xmlns="http://www.w3.org/2000/svg">
<rect x="0.5" width="48" height="48" rx="8" fill="#E8F5E9"/>
<g clip-path="url(#clip0_256_814)">
<path fill-rule="evenodd" clip-rule="evenodd" d="M10.8535 0.194336C16.3763 0.194336 20.8535 4.67149 20.8535 10.1943V0.194336H30.8535C36.3763 0.194336 40.8535 4.67149 40.8535 10.1943C40.8535 15.7171 36.3763 20.1943 30.8535 20.1943C36.3763 20.1943 40.8535 24.6715 40.8535 30.1943C40.8535 32.9366 39.7496 35.4211 37.962 37.2277L37.9246 37.2654L37.8914 37.2984C36.0844 39.0886 33.5981 40.1943 30.8535 40.1943C28.1276 40.1943 25.6564 39.1036 23.8525 37.3348C23.8291 37.3118 23.8057 37.2886 23.7824 37.2654C23.7605 37.2435 23.7387 37.2215 23.717 37.1994C21.9459 35.3952 20.8535 32.9223 20.8535 30.1943C20.8535 35.7171 16.3763 40.1943 10.8535 40.1943C5.33067 40.1943 0.853516 35.7171 0.853516 30.1943V20.1943H10.8535C5.33067 20.1943 0.853516 15.7171 0.853516 10.1943C0.853516 4.67149 5.33067 0.194336 10.8535 0.194336ZM18.8535 10.1943C18.8535 14.6126 15.2718 18.1943 10.8535 18.1943V2.19434C15.2718 2.19434 18.8535 5.77606 18.8535 10.1943ZM38.8535 30.1943C38.8535 25.776 35.2718 22.1943 30.8535 22.1943C26.4352 22.1943 22.8535 25.776 22.8535 30.1943H38.8535ZM2.85352 22.1943V30.1943C2.85352 34.6126 6.43524 38.1943 10.8535 38.1943C15.2718 38.1943 18.8535 34.6126 18.8535 30.1943V22.1943H2.85352ZM22.8535 18.1943V2.19434H30.8535C35.2718 2.19434 38.8535 5.77606 38.8535 10.1943C38.8535 14.6126 35.2718 18.1943 30.8535 18.1943H22.8535Z" fill="#5417D7"/>
</g>
<defs>
<clipPath id="clip0_256_814">
<rect width="40" height="40" fill="white" transform="translate(0.853516 0.194336)"/>
</clipPath>
</defs>
</svg>
