<svg width="49" height="48" viewBox="0 0 49 48" fill="none" xmlns="http://www.w3.org/2000/svg">
<rect x="0.5" width="48" height="48" rx="8" fill="#F5F7FA"/>
<g clip-path="url(#clip0_256_817)">
<path fill-rule="evenodd" clip-rule="evenodd" d="M10.5981 13.9613L0.612305 23.8467C2.60964 25.824 4.89129 27.4904 7.37894 28.7941C8.06655 30.5997 9.14433 32.293 10.6123 33.7462C16.1352 39.2135 25.0895 39.2135 30.6123 33.7462C32.0803 32.293 33.1581 30.5997 33.8457 28.794C36.3333 27.4904 38.615 25.824 40.6123 23.8467L30.6346 13.9693C30.6272 13.9619 30.6198 13.9546 30.6123 13.9472C25.0895 8.47985 16.1352 8.47985 10.6123 13.9472C10.6076 13.9519 10.6028 13.9566 10.5981 13.9613ZM29.6568 30.5776C26.7468 31.5498 23.692 32.0477 20.6123 32.0477C17.5326 32.0477 14.4779 31.5498 11.5679 30.5776C11.8832 30.9917 12.2313 31.3891 12.6123 31.7663C17.0306 36.1402 24.194 36.1402 28.6123 31.7663C28.9933 31.3891 29.3415 30.9917 29.6568 30.5776ZM12.8174 15.7291C13.5677 16.2198 14.3655 16.6397 15.2003 16.982C16.9161 17.6856 18.7551 18.0477 20.6123 18.0477C22.4695 18.0477 24.3085 17.6856 26.0243 16.982C26.8591 16.6397 27.6569 16.2198 28.4073 15.7291C24.0441 11.6192 17.1805 11.6192 12.8174 15.7291Z" fill="#3B4158"/>
</g>
<defs>
<clipPath id="clip0_256_817">
<rect width="40" height="28" fill="white" transform="translate(0.612305 9.84668)"/>
</clipPath>
</defs>
</svg>
