<svg width="56" height="48" viewBox="0 0 56 48" fill="none" xmlns="http://www.w3.org/2000/svg">
<rect x="0.5" width="48" height="48" rx="8" fill="#F5F7FA"/>
<g clip-path="url(#clip0_256_820)">
<path d="M55.4957 19.5163C55.5015 19.4746 55.5015 19.4325 55.4957 19.3908C55.5011 19.3568 55.5011 19.3222 55.4957 19.2881L55.0883 16.3555C55.0295 16.0046 54.8723 15.6767 54.6344 15.4083L54.5645 15.3285L54.4365 15.2029L47.3829 9.24635L47.5808 9.44036C47.4189 9.25047 47.2157 9.09859 46.9861 8.9959C46.7565 8.89321 46.5062 8.84232 46.2539 8.84698H44.1122C43.7639 8.84021 43.4236 8.94877 43.1461 9.15508C42.8547 8.95001 42.5038 8.84201 42.1451 8.84698H40.0034C39.7225 8.84251 39.4454 8.91085 39.2001 9.04511C38.9549 9.17936 38.7501 9.37476 38.6067 9.61151C38.3855 9.94967 38.3023 10.3571 38.3738 10.7526L38.6416 12.6012C38.4642 12.5026 38.2635 12.4515 38.0596 12.4529H27.6887C27.3166 12.4552 26.9531 12.5621 26.6411 12.761C26.3395 12.9461 26.0973 13.2111 25.9428 13.5255L25.1396 12.8523C24.8235 12.5655 24.4063 12.4101 23.9757 12.4186H7.70353C7.33012 12.4253 6.96501 12.5276 6.64436 12.7153C6.20569 12.967 5.88421 13.3763 5.74809 13.8564L0.580117 30.8019C0.483555 31.0811 0.474056 31.3822 0.552836 31.6668C0.631617 31.9513 0.795109 32.2064 1.02243 32.3995C1.08166 32.4487 1.14385 32.4944 1.20866 32.5363C1.20866 32.5363 1.10389 32.4679 1.04569 32.4109L8.09931 38.3788C8.39769 38.6482 8.78781 38.7987 9.19336 38.801H25.5936C25.9681 38.7915 26.3335 38.6852 26.6528 38.4929C26.8334 38.3962 26.995 38.2687 27.13 38.1163L27.1882 38.0365L27.2813 37.9224L27.3512 37.7968L28.1194 38.4473C28.4135 38.7059 28.7951 38.8482 29.1902 38.8467H45.6253C45.9994 38.8345 46.3641 38.7284 46.6845 38.5386C46.861 38.4359 47.0217 38.3091 47.1618 38.162L47.2199 38.0821L47.313 37.9681C47.3625 37.8958 47.4055 37.8195 47.441 37.7398C47.4791 37.6706 47.5103 37.598 47.5342 37.523L52.2482 22.0496V21.9127C52.254 21.8596 52.254 21.806 52.2482 21.7529V21.6502C52.2539 21.6162 52.2539 21.5815 52.2482 21.5475C52.2535 21.4753 52.2535 21.4029 52.2482 21.3307H53.7614C53.893 21.3425 54.0255 21.3425 54.1571 21.3307H54.2619C54.3471 21.3058 54.4291 21.2713 54.5063 21.228H54.6227L54.8322 21.0682L54.9253 20.9998L55.0883 20.7943V20.7259L55.2047 20.5319C55.1982 20.4942 55.1982 20.4556 55.2047 20.4178C55.1985 20.3993 55.1985 20.3793 55.2047 20.3608C55.2294 20.2939 55.2489 20.2252 55.2629 20.1553C55.2575 20.1328 55.2575 20.1094 55.2629 20.0869C55.2572 20.0529 55.2572 20.0182 55.2629 19.9842C55.2629 19.9842 55.4957 19.5391 55.4957 19.5163Z" fill="black"/>
<path d="M24.4532 13.7196C24.515 13.7744 24.5581 13.8464 24.5768 13.926C24.5956 14.0055 24.589 14.0888 24.558 14.1646L19.4017 31.0986C19.3367 31.2835 19.2039 31.4381 19.0292 31.5323C18.887 31.6255 18.7225 31.6806 18.5519 31.692H2.16341C2.02345 31.6854 1.89085 31.6286 1.79094 31.5323C1.7315 31.4784 1.68978 31.4083 1.67112 31.3311C1.65246 31.2539 1.65771 31.173 1.68618 31.0986L6.85416 14.1646C6.9137 13.9774 7.04237 13.8187 7.21498 13.7196C7.35949 13.6331 7.52324 13.5821 7.69221 13.5712H24.0807C24.2196 13.5725 24.3527 13.6256 24.4532 13.7196ZM15.8981 27.6867L18.9826 17.5765H10.3461L7.27317 27.6867H15.8981ZM40.0968 13.8907C40.1527 13.9544 40.2226 14.005 40.3012 14.0386C40.3798 14.0721 40.465 14.0879 40.5508 14.0847H42.6808C42.7619 14.0855 42.8418 14.066 42.9132 14.0281C42.9844 13.9901 43.0446 13.935 43.0882 13.8679C43.126 13.8155 43.1527 13.7562 43.1667 13.6934C43.1807 13.6307 43.1817 13.5659 43.1696 13.5028L42.7506 10.4903C42.7107 10.3508 42.6391 10.2221 42.5411 10.1137C42.4852 10.05 42.4153 9.99946 42.3367 9.96587C42.2581 9.93229 42.1728 9.91651 42.0872 9.9197H39.9571C39.876 9.91892 39.796 9.93842 39.7248 9.97636C39.6535 10.0143 39.5932 10.0694 39.5498 10.1365C39.4683 10.2963 39.4333 10.399 39.4683 10.4903L39.8989 13.5028C39.921 13.6495 39.9904 13.7854 40.0968 13.8907ZM46.8594 10.4674C46.8195 10.328 46.7478 10.1993 46.6499 10.0909C46.5963 10.0274 46.5285 9.97688 46.4518 9.94324C46.3751 9.9096 46.2915 9.89373 46.2076 9.89687H44.0659C43.9861 9.89465 43.9072 9.91362 43.8375 9.95179C43.7679 9.98996 43.7101 10.0459 43.6702 10.1137C43.5927 10.2149 43.5592 10.3421 43.5771 10.4674L44.0077 13.4799C44.0347 13.6251 44.1033 13.7597 44.2056 13.8679C44.2625 13.9304 44.3325 13.9801 44.4109 14.0135C44.4893 14.047 44.574 14.0635 44.6595 14.0619H46.8012C46.8808 14.0629 46.9592 14.0435 47.0286 14.0054C47.0981 13.9673 47.1562 13.9121 47.197 13.8451C47.2375 13.7941 47.2657 13.7347 47.2799 13.6716C47.294 13.6084 47.2935 13.5429 47.2784 13.4799L46.8594 10.4674ZM38.2228 15.0319L38.0133 13.5484H27.689C27.5269 13.5572 27.3701 13.6084 27.235 13.6968C27.1493 13.7426 27.0747 13.8061 27.0164 13.8829C26.9582 13.9598 26.9176 14.0481 26.8975 14.1418L26.0362 16.9717C26.0018 17.0424 25.99 17.1218 26.0025 17.1992C26.015 17.2766 26.0511 17.3484 26.106 17.4054C26.2042 17.4958 26.3323 17.5485 26.4669 17.5537H39.0143L35.9298 27.6639H23.4173C23.2559 27.6675 23.0988 27.7149 22.9634 27.8008C22.7987 27.9033 22.6785 28.0618 22.6258 28.2459L21.7528 31.0758C21.7243 31.1484 21.7168 31.2273 21.7312 31.3038C21.7456 31.3804 21.7812 31.4515 21.8343 31.5094C21.9294 31.6059 22.0585 31.6631 22.1951 31.6692H38.6302C38.8002 31.6548 38.964 31.6 39.1074 31.5094C39.2793 31.4148 39.4082 31.2599 39.4683 31.0758L44.1939 15.6024H38.8746C38.7902 15.604 38.7064 15.5887 38.6284 15.5573C38.5503 15.5259 38.4796 15.4791 38.4207 15.4198C38.3245 15.3163 38.2564 15.1908 38.2228 15.0547V15.0319Z" fill="white"/>
</g>
<defs>
<clipPath id="clip0_256_820">
<rect width="55" height="30" fill="white" transform="translate(0.5 8.84668)"/>
</clipPath>
</defs>
</svg>
