<svg width="49" height="48" viewBox="0 0 49 48" fill="none" xmlns="http://www.w3.org/2000/svg">
<rect x="0.5" width="48" height="48" rx="8" fill="#F5F7FA"/>
<g clip-path="url(#clip0_256_824)">
<path d="M38.9375 11.6904C38.9375 12.1564 39.3199 12.5342 39.7917 12.5342H40.6458C41.1176 12.5342 41.5 12.1564 41.5 11.6904C41.5 11.2244 41.1176 10.8467 40.6458 10.8467H39.7917C39.3199 10.8467 38.9375 11.2244 38.9375 11.6904Z" fill="#212326"/>
<path d="M14.1667 37.8467H18.3161L17.1081 36.6534C16.7877 36.337 16.3532 36.1592 15.9001 36.1592H14.1667C7.56225 36.1592 2.20833 30.8706 2.20833 24.3467C2.20833 17.8228 7.56225 12.5342 14.1667 12.5342H27.8333C34.4378 12.5342 39.7917 17.8228 39.7917 24.3467C39.7917 30.8706 34.4378 36.1592 27.8333 36.1592H22.7209C22.0413 36.1592 21.3895 35.8925 20.9089 35.4178L19.4937 34.0198C18.6928 33.2287 17.6064 32.7842 16.4737 32.7842H14.1667C9.44921 32.7842 5.625 29.0066 5.625 24.3467C5.625 19.6867 9.44921 15.9092 14.1667 15.9092H27.8333C32.5508 15.9092 36.375 19.6867 36.375 24.3467C36.375 29.0066 32.5508 32.7842 27.8333 32.7842H24.5507C23.871 32.7842 23.2193 32.5175 22.7387 32.0428L21.3234 30.6448C20.5225 29.8537 19.4362 29.4092 18.3035 29.4092H14.1667C11.3362 29.4092 9.04167 27.1426 9.04167 24.3467C9.04167 21.5508 11.3362 19.2842 14.1667 19.2842H27.8333C30.6638 19.2842 32.9583 21.5508 32.9583 24.3467C32.9583 27.1085 30.7194 29.3538 27.9367 29.4082L27.9361 29.4092H26.6861C26.0064 29.4092 25.3547 29.1425 24.8741 28.6678L23.4588 27.2698C22.8017 26.6206 21.9524 26.2049 21.0429 26.0766L21 26.0342H14.1667C13.2232 26.0342 12.4583 25.2787 12.4583 24.3467C12.4583 23.4147 13.2232 22.6592 14.1667 22.6592H27.8333C28.7768 22.6592 29.5417 23.4147 29.5417 24.3467C29.5417 25.2787 28.7768 26.0342 27.8333 26.0342H24.4167L25.6247 27.2274C25.945 27.5439 26.3795 27.7217 26.8326 27.7217H27.8333C29.7203 27.7217 31.25 26.2106 31.25 24.3467C31.25 22.4827 29.7203 20.9717 27.8333 20.9717H14.1667C12.2797 20.9717 10.75 22.4827 10.75 24.3467C10.75 26.2106 12.2797 27.7217 14.1667 27.7217H20.4389C21.1186 27.7217 21.7703 27.9884 22.2509 28.463L23.6662 29.861C24.4671 30.6522 25.5534 31.0967 26.6861 31.0967H28.2604V31.0837C31.8354 30.866 34.6667 27.9329 34.6667 24.3467C34.6667 20.6188 31.6072 17.5967 27.8333 17.5967H14.1667C10.3928 17.5967 7.33333 20.6188 7.33333 24.3467C7.33333 28.0746 10.3928 31.0967 14.1667 31.0967H18.3035C18.9831 31.0967 19.6349 31.3634 20.1155 31.838L21.5307 33.236C22.3317 34.0272 23.418 34.4717 24.5507 34.4717H27.8333C33.4943 34.4717 38.0833 29.9386 38.0833 24.3467C38.0833 18.7548 33.4943 14.2217 27.8333 14.2217H14.1667C8.50573 14.2217 3.91667 18.7548 3.91667 24.3467C3.91667 29.9386 8.50573 34.4717 14.1667 34.4717H16.4737C17.1534 34.4717 17.8051 34.7384 18.2857 35.213L19.701 36.611C20.5019 37.4022 21.5882 37.8467 22.7209 37.8467H27.8333C35.3812 37.8467 41.5 31.8025 41.5 24.3467C41.5 16.8908 35.3812 10.8467 27.8333 10.8467L14.1667 10.8467C6.61877 10.8467 0.499999 16.8908 0.5 24.3467C0.500001 31.8025 6.61878 37.8467 14.1667 37.8467Z" fill="#212326"/>
</g>
<defs>
<clipPath id="clip0_256_824">
<rect width="41" height="27" fill="white" transform="translate(0.5 10.8467)"/>
</clipPath>
</defs>
</svg>
