<svg width="109" height="61" viewBox="0 0 109 61" fill="none" xmlns="http://www.w3.org/2000/svg">
<path d="M48.6003 0.537109L48.6003 16.6235M107.029 0.537109V60.9997M108 1.6003L47.5371 1.60029M108 59.8441L47.5371 59.8441M48.6003 44.9133L48.6003 60.9997" stroke="url(#paint0_linear_256_888)" stroke-width="2"/>
<path d="M2.088 29.072H0.744V28.088H2.088V23.744H3.072V28.088H5.376V29.072H3.072V38H2.088V29.072ZM11.952 38.168C11.248 38.168 10.584 38.04 9.96 37.784C9.336 37.512 8.792 37.144 8.328 36.68C7.864 36.216 7.496 35.672 7.224 35.048C6.968 34.424 6.84 33.76 6.84 33.056C6.84 32.352 6.968 31.688 7.224 31.064C7.496 30.44 7.864 29.896 8.328 29.432C8.792 28.968 9.336 28.608 9.96 28.352C10.584 28.08 11.248 27.944 11.952 27.944C12.768 27.944 13.512 28.112 14.184 28.448C14.872 28.784 15.448 29.24 15.912 29.816V28.088H16.896V38H15.912V36.296C15.448 36.872 14.872 37.328 14.184 37.664C13.512 38 12.768 38.168 11.952 38.168ZM7.8 33.056C7.8 33.632 7.904 34.176 8.112 34.688C8.336 35.184 8.632 35.624 9 36.008C9.384 36.376 9.824 36.672 10.32 36.896C10.832 37.104 11.376 37.208 11.952 37.208C12.528 37.208 13.064 37.104 13.56 36.896C14.072 36.672 14.512 36.376 14.88 36.008C15.264 35.624 15.56 35.184 15.768 34.688C15.992 34.176 16.104 33.632 16.104 33.056C16.104 32.48 15.992 31.944 15.768 31.448C15.56 30.936 15.264 30.496 14.88 30.128C14.512 29.744 14.072 29.448 13.56 29.24C13.064 29.016 12.528 28.904 11.952 28.904C11.376 28.904 10.832 29.016 10.32 29.24C9.824 29.448 9.384 29.744 9 30.128C8.632 30.496 8.336 30.936 8.112 31.448C7.904 31.944 7.8 32.48 7.8 33.056ZM24.8344 27.944C25.5384 27.944 26.2024 28.08 26.8264 28.352C27.4504 28.608 27.9944 28.968 28.4584 29.432C28.9224 29.896 29.2824 30.44 29.5384 31.064C29.8104 31.688 29.9464 32.352 29.9464 33.056C29.9464 33.76 29.8104 34.424 29.5384 35.048C29.2824 35.672 28.9224 36.216 28.4584 36.68C27.9944 37.144 27.4504 37.512 26.8264 37.784C26.2024 38.04 25.5384 38.168 24.8344 38.168C24.0024 38.168 23.2264 37.984 22.5064 37.616C21.8024 37.248 21.2184 36.76 20.7544 36.152V42.656H19.7704V28.088H20.7544V29.96C21.2184 29.352 21.8024 28.864 22.5064 28.496C23.2104 28.128 23.9864 27.944 24.8344 27.944ZM20.6824 33.056C20.6824 33.632 20.7864 34.176 20.9944 34.688C21.2184 35.184 21.5144 35.624 21.8824 36.008C22.2664 36.376 22.7064 36.672 23.2024 36.896C23.7144 37.104 24.2584 37.208 24.8344 37.208C25.4104 37.208 25.9464 37.104 26.4424 36.896C26.9544 36.672 27.3944 36.376 27.7624 36.008C28.1464 35.624 28.4424 35.184 28.6504 34.688C28.8744 34.176 28.9864 33.632 28.9864 33.056C28.9864 32.48 28.8744 31.944 28.6504 31.448C28.4424 30.936 28.1464 30.496 27.7624 30.128C27.3944 29.744 26.9544 29.448 26.4424 29.24C25.9464 29.016 25.4104 28.904 24.8344 28.904C24.2584 28.904 23.7144 29.016 23.2024 29.24C22.7064 29.448 22.2664 29.744 21.8824 30.128C21.5144 30.496 21.2184 30.936 20.9944 31.448C20.7864 31.944 20.6824 32.48 20.6824 33.056ZM49.5173 38L48.0053 35.744C47.6213 36.048 47.2213 36.344 46.8053 36.632C46.3893 36.904 45.9573 37.152 45.5093 37.376C45.0613 37.584 44.5893 37.76 44.0933 37.904C43.6133 38.032 43.1093 38.096 42.5813 38.096C41.9573 38.096 41.3973 38 40.9013 37.808C40.4213 37.6 40.0133 37.328 39.6773 36.992C39.3573 36.64 39.1093 36.24 38.9333 35.792C38.7573 35.328 38.6693 34.84 38.6693 34.328C38.6693 33.8 38.7573 33.312 38.9333 32.864C39.1093 32.4 39.3413 31.984 39.6293 31.616C39.9173 31.232 40.2293 30.88 40.5653 30.56C40.9173 30.24 41.2613 29.96 41.5973 29.72C41.9493 29.464 42.2693 29.24 42.5573 29.048C42.8613 28.856 43.1013 28.696 43.2773 28.568L42.3173 27.128C42.0773 26.76 41.8373 26.352 41.5973 25.904C41.3573 25.456 41.2373 24.952 41.2373 24.392C41.2373 23.96 41.3173 23.544 41.4773 23.144C41.6373 22.744 41.8693 22.392 42.1733 22.088C42.4773 21.768 42.8453 21.52 43.2773 21.344C43.7093 21.152 44.1893 21.056 44.7173 21.056C45.9013 21.056 46.8053 21.368 47.4293 21.992C48.0693 22.6 48.3893 23.408 48.3893 24.416C48.3893 25.056 48.1813 25.64 47.7653 26.168C47.3653 26.696 46.8693 27.152 46.2773 27.536L44.5253 28.736L48.2693 34.424L50.7653 32.384L51.2933 33.08L48.7493 35.144L50.6453 38H49.5173ZM45.8693 26.816C46.3333 26.496 46.7173 26.128 47.0213 25.712C47.3413 25.296 47.5013 24.864 47.5013 24.416C47.5013 23.664 47.2693 23.064 46.8053 22.616C46.3573 22.168 45.6693 21.944 44.7413 21.944C43.9733 21.944 43.3493 22.184 42.8693 22.664C42.4053 23.144 42.1733 23.72 42.1733 24.392C42.1733 24.824 42.2613 25.216 42.4373 25.568C42.6293 25.904 42.8533 26.256 43.1093 26.624L44.0453 28.04L45.8693 26.816ZM39.6533 34.328C39.6533 34.744 39.7253 35.128 39.8693 35.48C40.0133 35.816 40.2133 36.112 40.4693 36.368C40.7413 36.624 41.0533 36.824 41.4053 36.968C41.7733 37.096 42.1733 37.16 42.6053 37.16C43.4853 37.16 44.3093 36.968 45.0773 36.584C45.8453 36.2 46.6613 35.68 47.5253 35.024L43.7333 29.288C43.3973 29.528 42.9973 29.808 42.5333 30.128C42.0693 30.448 41.6213 30.816 41.1893 31.232C40.7573 31.648 40.3893 32.112 40.0853 32.624C39.7973 33.136 39.6533 33.704 39.6533 34.328ZM61.5489 29.072H60.2049V28.088H61.5489V23.744H62.5329V28.088H64.8369V29.072H62.5329V38H61.5489V29.072ZM71.4129 38.168C70.7089 38.168 70.0449 38.04 69.4209 37.784C68.7969 37.512 68.2529 37.144 67.7889 36.68C67.3249 36.216 66.9569 35.672 66.6849 35.048C66.4289 34.424 66.3009 33.76 66.3009 33.056C66.3009 32.352 66.4289 31.688 66.6849 31.064C66.9569 30.44 67.3249 29.896 67.7889 29.432C68.2529 28.968 68.7969 28.608 69.4209 28.352C70.0449 28.08 70.7089 27.944 71.4129 27.944C72.2289 27.944 72.9729 28.112 73.6449 28.448C74.3329 28.784 74.9089 29.24 75.3729 29.816V28.088H76.3569V38H75.3729V36.296C74.9089 36.872 74.3329 37.328 73.6449 37.664C72.9729 38 72.2289 38.168 71.4129 38.168ZM67.2609 33.056C67.2609 33.632 67.3649 34.176 67.5729 34.688C67.7969 35.184 68.0929 35.624 68.4609 36.008C68.8449 36.376 69.2849 36.672 69.7809 36.896C70.2929 37.104 70.8369 37.208 71.4129 37.208C71.9889 37.208 72.5249 37.104 73.0209 36.896C73.5329 36.672 73.9729 36.376 74.3409 36.008C74.7249 35.624 75.0209 35.184 75.2289 34.688C75.4529 34.176 75.5649 33.632 75.5649 33.056C75.5649 32.48 75.4529 31.944 75.2289 31.448C75.0209 30.936 74.7249 30.496 74.3409 30.128C73.9729 29.744 73.5329 29.448 73.0209 29.24C72.5249 29.016 71.9889 28.904 71.4129 28.904C70.8369 28.904 70.2929 29.016 69.7809 29.24C69.2849 29.448 68.8449 29.744 68.4609 30.128C68.0929 30.496 67.7969 30.936 67.5729 31.448C67.3649 31.944 67.2609 32.48 67.2609 33.056ZM87.6073 28.088H88.5913V37.784C88.5913 38.52 88.4713 39.184 88.2313 39.776C88.0073 40.384 87.6793 40.896 87.2473 41.312C86.8153 41.744 86.2953 42.072 85.6873 42.296C85.0953 42.536 84.4393 42.656 83.7193 42.656C82.9513 42.656 82.2793 42.568 81.7033 42.392C81.1273 42.216 80.6393 41.976 80.2393 41.672C79.8553 41.384 79.5513 41.048 79.3273 40.664C79.1033 40.28 78.9513 39.88 78.8713 39.464H79.8553C80.0313 40.216 80.4713 40.768 81.1753 41.12C81.8793 41.488 82.7273 41.672 83.7193 41.672C84.8713 41.672 85.8073 41.344 86.5273 40.688C87.2473 40.048 87.6073 39.072 87.6073 37.76V36.296C87.1433 36.856 86.5673 37.312 85.8793 37.664C85.2073 38 84.4633 38.168 83.6473 38.168C82.9433 38.168 82.2793 38.04 81.6553 37.784C81.0313 37.512 80.4873 37.144 80.0233 36.68C79.5593 36.216 79.1913 35.672 78.9193 35.048C78.6633 34.424 78.5353 33.76 78.5353 33.056C78.5353 32.352 78.6633 31.688 78.9193 31.064C79.1913 30.44 79.5593 29.896 80.0233 29.432C80.4873 28.968 81.0313 28.608 81.6553 28.352C82.2793 28.08 82.9433 27.944 83.6473 27.944C84.4633 27.944 85.2073 28.112 85.8793 28.448C86.5673 28.784 87.1433 29.24 87.6073 29.816V28.088ZM79.4953 33.056C79.4953 33.632 79.5993 34.176 79.8073 34.688C80.0313 35.184 80.3273 35.624 80.6953 36.008C81.0793 36.376 81.5193 36.672 82.0153 36.896C82.5273 37.104 83.0713 37.208 83.6473 37.208C84.2233 37.208 84.7593 37.104 85.2553 36.896C85.7673 36.672 86.2073 36.376 86.5753 36.008C86.9593 35.624 87.2553 35.184 87.4633 34.688C87.6873 34.176 87.7993 33.632 87.7993 33.056C87.7993 32.48 87.6873 31.944 87.4633 31.448C87.2553 30.936 86.9593 30.496 86.5753 30.128C86.2073 29.744 85.7673 29.448 85.2553 29.24C84.7593 29.016 84.2233 28.904 83.6473 28.904C83.0713 28.904 82.5273 29.016 82.0153 29.24C81.5193 29.448 81.0793 29.744 80.6953 30.128C80.3273 30.496 80.0313 30.936 79.8073 31.448C79.5993 31.944 79.4953 32.48 79.4953 33.056Z" fill="url(#paint1_linear_256_888)"/>
<defs>
<linearGradient id="paint0_linear_256_888" x1="47.5371" y1="30.8609" x2="108" y2="30.8609" gradientUnits="userSpaceOnUse">
<stop stop-color="#2EB219"/>
<stop offset="1" stop-color="#028E2E"/>
</linearGradient>
<linearGradient id="paint1_linear_256_888" x1="-4.20974e-07" y1="28.5714" x2="102" y2="28.5714" gradientUnits="userSpaceOnUse">
<stop stop-color="#61DC00"/>
<stop offset="1" stop-color="#008C30"/>
</linearGradient>
</defs>
</svg>
