<svg width="35" height="38" viewBox="0 0 35 38" fill="none" xmlns="http://www.w3.org/2000/svg">
<path d="M33.5 37V33C33.5 30.8783 32.6571 28.8434 31.1569 27.3431C29.6566 25.8429 27.6217 25 25.5 25H23.5C22.9696 25 22.4609 24.7893 22.0858 24.4142C21.7107 24.0391 21.5 23.5304 21.5 23V13C21.5 11.9391 21.0786 10.9217 20.3284 10.1716C19.5783 9.42143 18.5609 9 17.5 9C16.4391 9 15.4217 9.42143 14.6716 10.1716C13.9214 10.9217 13.5 11.9391 13.5 13V31L8.7 24.6C8.32741 24.1032 7.84428 23.7 7.28885 23.4223C6.73343 23.1446 6.12098 23 5.5 23H4.632C2.902 23 1.5 24.402 1.5 26.132C1.5 26.7 1.654 27.258 1.946 27.744L7.5 37M17.5 3V1V3ZM29.5 15H31.5H29.5ZM3.5 15H5.5H3.5ZM8.186 5.686L6.772 4.272L8.186 5.686ZM26.814 5.686L28.228 4.272L26.814 5.686Z" fill="url(#paint0_linear_256_520)"/>
<path d="M33.5 37V33C33.5 30.8783 32.6571 28.8434 31.1569 27.3431C29.6566 25.8429 27.6217 25 25.5 25H23.5C22.9696 25 22.4609 24.7893 22.0858 24.4142C21.7107 24.0391 21.5 23.5304 21.5 23V13C21.5 11.9391 21.0786 10.9217 20.3284 10.1716C19.5783 9.42143 18.5609 9 17.5 9C16.4391 9 15.4217 9.42143 14.6716 10.1716C13.9214 10.9217 13.5 11.9391 13.5 13V31L8.7 24.6C8.32741 24.1032 7.84428 23.7 7.28885 23.4223C6.73343 23.1446 6.12098 23 5.5 23H4.632C2.902 23 1.5 24.402 1.5 26.132C1.5 26.7 1.654 27.258 1.946 27.744L7.5 37M17.5 3V1M29.5 15H31.5M3.5 15H5.5M8.186 5.686L6.772 4.272M26.814 5.686L28.228 4.272" stroke="url(#paint1_linear_256_520)" stroke-width="2" stroke-linecap="round" stroke-linejoin="round"/>
<defs>
<linearGradient id="paint0_linear_256_520" x1="17.5" y1="1" x2="17.5" y2="37" gradientUnits="userSpaceOnUse">
<stop stop-color="#022D24"/>
<stop offset="1" stop-color="#146C60"/>
</linearGradient>
<linearGradient id="paint1_linear_256_520" x1="17.5" y1="1" x2="17.5" y2="37" gradientUnits="userSpaceOnUse">
<stop stop-color="#022D24"/>
<stop offset="1" stop-color="#146C60"/>
</linearGradient>
</defs>
</svg>
