<svg width="48" height="32" viewBox="0 0 48 32" fill="none" xmlns="http://www.w3.org/2000/svg">
<path d="M22.7959 21.5475L23.4032 21.0365C25.2083 19.5181 26.5027 17.4813 27.1111 15.2023C27.7194 12.9233 27.6122 10.5123 26.8041 8.29631C25.9959 6.08027 24.5259 4.16635 22.5933 2.81401C20.6606 1.46167 18.3589 0.736328 16.0001 0.736328C13.6413 0.736328 11.3396 1.46167 9.40694 2.81401C7.4743 4.16635 6.00426 6.08027 5.19612 8.29631C4.38797 10.5123 4.28081 12.9233 4.88916 15.2023C5.49751 17.4813 6.79195 19.5181 8.59698 21.0365L9.20433 21.5475L8.48125 21.8747C5.50808 23.2201 2.94959 25.3375 1.07179 28.0065L22.7959 21.5475ZM22.7959 21.5475L23.519 21.8747M22.7959 21.5475L23.519 21.8747M23.519 21.8747C26.4923 23.2202 29.0508 25.3377 30.9287 28.0069L30.9358 28.017L30.9435 28.0268C31.0893 28.2137 31.1957 28.4283 31.2562 28.6575C31.3166 28.8868 31.3298 29.1259 31.295 29.3604C31.2602 29.5949 31.1782 29.8199 31.0538 30.0217C30.9294 30.2236 30.7653 30.398 30.5714 30.5345C30.3776 30.671 30.158 30.7667 29.9261 30.8157C29.6941 30.8648 29.4547 30.8662 29.2221 30.8199C28.9896 30.7736 28.7689 30.6805 28.5735 30.5463C28.378 30.4122 28.2119 30.2397 28.0851 30.0393L28.0787 30.0292L28.0718 30.0193C26.7111 28.0813 24.9037 26.4993 22.8026 25.4072C20.7014 24.3151 18.3682 23.745 16.0001 23.745C13.6321 23.745 11.2988 24.3151 9.19765 25.4072C7.09647 26.4993 5.28912 28.0813 3.92839 30.0193L3.92728 30.0209C3.76732 30.2507 3.55404 30.4382 3.30573 30.5674C3.05741 30.6966 2.78147 30.7637 2.50154 30.7629L2.49848 30.7629C2.13947 30.7641 1.78918 30.6524 1.49711 30.4436L1.4947 30.4419M23.519 21.8747L1.4947 30.4419M1.4947 30.4419C1.11613 30.1747 0.859002 29.7682 0.779719 29.3117C0.70046 28.8552 0.805408 28.386 1.07154 28.0069L1.4947 30.4419ZM45.7902 30.4395L45.7902 30.4395C45.9788 30.3088 46.1395 30.1419 46.2629 29.9485C46.3864 29.7551 46.4702 29.5391 46.5095 29.313C46.5487 29.0869 46.5427 28.8553 46.4916 28.6316C46.4406 28.4079 46.3456 28.1966 46.2121 28.0099L46.2099 28.0069C44.3321 25.3377 41.7735 23.2202 38.8002 21.8747L38.0751 21.5466L38.6854 21.0357C40.4953 19.5208 41.7943 17.4849 42.4056 15.2053C43.0169 12.9256 42.9108 10.5129 42.1017 8.2957C41.2926 6.0785 39.8198 4.16454 37.8839 2.8144C35.948 1.46426 33.643 0.743552 31.2828 0.750407L31.2805 0.750413C30.2302 0.748663 29.1847 0.893696 28.1745 1.1813L28.1655 1.18385L28.1655 1.18377C27.9411 1.24315 27.7308 1.34657 27.5468 1.48802C27.3627 1.62946 27.2087 1.80611 27.0936 2.00766C26.9785 2.20922 26.9046 2.43166 26.8763 2.66204C26.848 2.89241 26.8658 3.12612 26.9286 3.34955C26.9915 3.57298 27.0982 3.78168 27.2425 3.96348L26.864 4.26386L27.2425 3.96348C27.3868 4.14528 27.5658 4.29657 27.7691 4.40852C27.9725 4.52047 28.196 4.59086 28.4268 4.61558C28.6576 4.6403 28.891 4.61887 29.1134 4.55252L29.1192 4.55081L29.1192 4.55084C29.8227 4.35016 30.5508 4.24903 31.2823 4.25041M45.7902 30.4395L42.9439 30.3067L43.3525 30.0186C43.3524 30.0184 43.3523 30.0182 43.3521 30.018C41.9886 28.0838 40.1809 26.505 38.0806 25.4144C35.9802 24.3236 33.6487 23.753 31.2819 23.7504H31.2814C30.8172 23.7504 30.3721 23.566 30.0439 23.2378C29.7157 22.9097 29.5314 22.4645 29.5314 22.0004C29.5314 21.5363 29.7157 21.0912 30.0439 20.763C30.3721 20.4348 30.8172 20.2504 31.2814 20.2504C33.4031 20.2504 35.4379 19.4076 36.9382 17.9073C38.4385 16.407 39.2814 14.3721 39.2814 12.2504C39.2814 10.1287 38.4385 8.09385 36.9382 6.59355C35.4381 5.09349 33.4037 4.25066 31.2823 4.25041M45.7902 30.4395L45.7844 30.4436M45.7902 30.4395L45.7844 30.4436M31.2823 4.25041L31.2814 4.75041V4.25041C31.2817 4.25041 31.282 4.25041 31.2823 4.25041ZM39.0064 21.4192L39.2125 20.9636C39.2813 20.9947 39.3498 21.0263 39.4182 21.0582C39.2839 21.1814 39.1466 21.3018 39.0064 21.4192ZM39.0064 21.4192L39.3273 21.8026C39.3864 21.7531 39.4449 21.7032 39.503 21.6527C39.3387 21.5725 39.1732 21.4947 39.0064 21.4192ZM45.7844 30.4436C45.4924 30.6523 45.1424 30.764 44.7836 30.7629L45.7844 30.4436ZM9.34835 7.80585C8.4693 9.12144 8.00011 10.6682 8.00011 12.2504C8.00011 14.3721 8.84296 16.407 10.3433 17.9073C11.8435 19.4076 13.8784 20.2504 16.0001 20.2504C17.5824 20.2504 19.1291 19.7812 20.4447 18.9022C21.7603 18.0231 22.7856 16.7737 23.3911 15.3119C23.9966 13.8501 24.1551 12.2415 23.8464 10.6897C23.5377 9.13784 22.7758 7.71237 21.657 6.59355C20.5381 5.47473 19.1127 4.71281 17.5608 4.40413C16.009 4.09544 14.4004 4.25387 12.9386 4.85937C11.4768 5.46487 10.2274 6.49025 9.34835 7.80585Z" fill="url(#paint0_linear_256_514)" stroke="url(#paint1_linear_256_514)"/>
<defs>
<linearGradient id="paint0_linear_256_514" x1="23.6445" y1="0.236328" x2="23.6445" y2="31.3536" gradientUnits="userSpaceOnUse">
<stop stop-color="#022D24"/>
<stop offset="1" stop-color="#146C60"/>
</linearGradient>
<linearGradient id="paint1_linear_256_514" x1="23.6445" y1="0.236328" x2="23.6445" y2="31.3536" gradientUnits="userSpaceOnUse">
<stop stop-color="#022D24"/>
<stop offset="1" stop-color="#146C60"/>
</linearGradient>
</defs>
</svg>
